HIERARCHY
ROOT Hips
{
	OFFSET	0.00	0.00	0.00
	CHANNELS 6 Xposition Yposition Zposition Zrotation Xrotation Yrotation
	JOINT LeftUpLeg
	{
		OFFSET	 0.126116	-0.014019	-0.065224
		CHANNELS 3 Zrotation Xrotation Yrotation
		JOINT LeftLeg
		{
			OFFSET	 0.000000	 0.000000	 0.569914
			CHANNELS 3 Zrotation Xrotation Yrotation
			JOINT LeftFoot
			{
				OFFSET	 0.000000	 0.000000	 0.544423
				CHANNELS 3 Zrotation Xrotation Yrotation
				JOINT LeftToeBase
				{
					OFFSET	 0.000000	 0.000000	 0.207117
					CHANNELS 3 Zrotation Xrotation Yrotation
					End Site
					{
						OFFSET	 0.000000	 0.000000	 0.207117
					}
				}
			}
		}
	}
	JOINT RightUpLeg
	{
		OFFSET	-0.124023	-0.008373	-0.065224
		CHANNELS 3 Zrotation Xrotation Yrotation
		JOINT RightLeg
		{
			OFFSET	 0.000000	 0.000000	 0.570047
			CHANNELS 3 Zrotation Xrotation Yrotation
			JOINT RightFoot
			{
				OFFSET	 0.000000	 0.000000	 0.544354
				CHANNELS 3 Zrotation Xrotation Yrotation
				JOINT RightToeBase
				{
					OFFSET	 0.000000	 0.000000	 0.207540
					CHANNELS 3 Zrotation Xrotation Yrotation
					End Site
					{
						OFFSET	 0.000000	 0.000000	 0.207540
					}
				}
			}
		}
	}
	JOINT Spine
	{
		OFFSET	 0.000184	-0.007763	 0.117403
		CHANNELS 3 Zrotation Xrotation Yrotation
		JOINT Spine1
		{
			OFFSET	 0.000000	 0.000000	 0.137269
			CHANNELS 3 Zrotation Xrotation Yrotation
			JOINT Spine2
			{
				OFFSET	 0.000000	 0.000000	 0.156879
				CHANNELS 3 Zrotation Xrotation Yrotation
				JOINT LeftShoulder
				{
					OFFSET	 0.080501	-0.002496	 0.160144
					CHANNELS 3 Zrotation Xrotation Yrotation
					JOINT LeftArm
					{
						OFFSET	 0.000000	 0.000000	 0.164363
						CHANNELS 3 Zrotation Xrotation Yrotation
						JOINT LeftForeArm
						{
							OFFSET	 0.000000	 0.000000	 0.364576
							CHANNELS 3 Zrotation Xrotation Yrotation
							JOINT LeftHand
							{
								OFFSET	 0.000000	 0.000000	 0.360812
								CHANNELS 3 Zrotation Xrotation Yrotation
								JOINT LeftHandIndex1
								{
									OFFSET	 0.000000	 0.000000	 0.086006
									CHANNELS 3 Zrotation Xrotation Yrotation
									JOINT LeftHandIndex2
									{
										OFFSET	 0.000000	 0.000000	 0.047236
										CHANNELS 3 Zrotation Xrotation Yrotation
										JOINT LeftHandIndex3
										{
											OFFSET	-0.004284	-0.000551	 0.038166
											CHANNELS 3 Zrotation Xrotation Yrotation
											End Site
											{
												OFFSET	-0.004284	-0.000551	 0.038166
											}
										}
									}
								}
							}
						}
					}
				}
				JOINT Neck
				{
					OFFSET	 0.000000	 0.000000	 0.176489
					CHANNELS 3 Zrotation Xrotation Yrotation
					JOINT Head
					{
						OFFSET	 0.000000	-0.001747	 0.077940
						CHANNELS 3 Zrotation Xrotation Yrotation
						End Site
						{
							OFFSET	 0.000000	-0.001747	 0.077940
						}
					}
				}
				JOINT RightShoulder
				{
					OFFSET	-0.080363	 0.000306	 0.159706
					CHANNELS 3 Zrotation Xrotation Yrotation
					JOINT RightArm
					{
						OFFSET	 0.000000	 0.000000	 0.164196
						CHANNELS 3 Zrotation Xrotation Yrotation
						JOINT RightForeArm
						{
							OFFSET	 0.000000	 0.000000	 0.365611
							CHANNELS 3 Zrotation Xrotation Yrotation
							JOINT RightHand
							{
								OFFSET	 0.000000	 0.000000	 0.360648
								CHANNELS 3 Zrotation Xrotation Yrotation
								JOINT RightHandIndex1
								{
									OFFSET	 0.000000	 0.000000	 0.069977
									CHANNELS 3 Zrotation Xrotation Yrotation
									JOINT RightHandIndex2
									{
										OFFSET	 0.000000	 0.000000	 0.052305
										CHANNELS 3 Zrotation Xrotation Yrotation
										JOINT RightHandIndex3
										{
											OFFSET	 0.009002	-0.000782	 0.042196
											CHANNELS 3 Zrotation Xrotation Yrotation
											End Site
											{
												OFFSET	 0.009002	-0.000782	 0.042196
											}
										}
									}
								}
							}
						}
					}
				}
			}
		}
	}
}
MOTION
Frames:    4
Frame Time: 0.03333334
 0.011596	 0.057208	 1.194521	 5.735609	-0.800156	-3.651602	 0.644811	-13.846790	-171.297100	 1.277399	-40.860000	 0.604973	 53.755710	 81.238300	-57.990170	-2.368510	 31.761660	-0.073258	-7.722173	-32.017170	-174.861500	 12.770050	-53.618630	 10.962440	 64.354580	 83.612820	-62.102390	 2.359010	 32.994570	 0.103094	 1.309038	 8.584965	 0.548666	 2.013205	 1.785388	 3.707090	-9.425508	-1.521757	-4.216233	-94.110490	 58.981080	 175.019200	 26.162070	 45.373280	-19.744740	-2.109289	-2.500854	-25.465280	 1.767517	-5.258165	-8.061645	-4.864877	 19.378320	-2.799829	-3.869910	 21.621120	 2.190946	-4.804292	 5.592256	 0.144230	-0.039025	-5.104919	 0.231213	-11.278250	 2.103413	 1.945721	 89.715040	 61.760220	 179.839300	-18.611080	 51.124920	 8.080409	-1.987278	-3.092803	 15.060730	-5.116587	 10.322980	 0.337904	 6.276989	 23.599640	-0.550955	 2.036494	 43.450230	-7.127229	 0.788922	 23.112120	 3.437334
 0.011495	 0.054641	 1.193341	 5.955987	-0.596431	-3.653253	 0.437214	-14.110860	-171.295300	 1.376318	-41.173260	 0.673917	 54.424370	 81.336850	-58.737330	-2.368132	 31.824160	-0.074673	-8.268461	-32.627940	-174.920600	 13.130400	-53.490090	 11.240240	 85.988240	 83.699820	-84.205090	 2.359052	 32.988710	 0.102959	 1.138652	 8.482292	 0.503209	 2.004176	 1.558439	 3.758343	-9.394909	-1.364151	-4.184170	-94.165460	 58.990070	 174.900900	 26.222290	 45.139730	-19.679550	-2.200530	-2.526590	-26.091480	 1.949006	-5.363931	-8.252269	-4.862936	 19.427740	-2.803069	-3.866799	 21.660750	 2.187793	-4.803594	 5.600497	 0.143752	-0.027723	-5.113157	 0.247393	-11.222140	 2.180185	 1.929938	 89.693730	 61.798850	 179.788200	-18.467500	 51.244420	 7.886709	-2.167758	-3.143412	 15.060600	-5.169013	 10.476230	 0.257550	 6.271522	 23.214000	-0.556393	 2.080644	 43.072920	-7.166261	 0.871343	 22.741880	 3.397152
 0.011579	 0.029897	 1.185733	 6.562616	 0.479365	-4.118410	-0.039232	-14.611720	-170.871300	 1.728593	-42.480160	 0.929275	 60.620910	 81.993840	-65.231410	-2.362553	 32.703040	-0.094801	-8.451942	-36.537130	-174.440700	 14.276570	-51.536220	 11.928450	 130.548600	 76.241170	-131.384400	 2.357910	 33.154970	 0.106831	 0.384956	 7.737919	 0.771328	 1.916557	 1.004434	 3.806545	-8.913411	-0.648459	-3.871691	-94.422140	 58.974860	 174.356000	 25.654870	 43.168580	-19.341970	-3.437435	-2.310426	-30.552620	 1.830197	-6.231860	-7.546252	-4.836556	 20.004610	-2.821523	-3.837558	 22.031290	 2.158082	-4.783529	 5.836553	 0.129885	 0.007866	-5.227694	 0.330164	-10.695500	 2.640438	 1.979697	 89.502320	 62.005860	 179.324200	-17.355360	 52.016030	 6.592021	-4.104732	-3.611821	 14.751400	-5.817443	 11.469780	-1.375970	 6.218902	 20.224780	-0.661781	 2.386937	 40.301180	-7.434467	 1.531348	 19.694330	 3.091781
 0.010988	-0.008302	 1.177731	 6.885140	 0.758304	-4.463367	-0.532420	-13.206820	-170.731600	 2.048969	-43.187440	 1.161077	 62.997300	 82.385670	-67.771220	-2.343194	 35.338740	-0.157050	-6.420337	-39.150580	-173.371600	 13.972310	-47.035340	 10.890090	 134.708000	 69.730410	-137.041100	 2.338976	 35.645920	 0.166179	-0.774828	 7.665485	 1.076318	 1.703394	 0.917136	 3.576789	-8.043592	-0.278229	-3.428765	-94.531560	 58.913270	 174.133100	 23.282710	 40.972310	-19.168250	-3.967728	-2.312816	-34.370490	 1.345725	-7.059069	-7.443906	-4.838506	 20.443710	-2.963157	-3.798806	 22.516790	 2.118720	-4.737531	 6.374722	 0.097932	 0.084825	-5.368396	 0.353165	-9.753736	 3.090133	 1.844136	 89.375890	 61.995380	 179.019100	-15.809820	 52.676310	 4.513933	-6.055597	-3.963430	 14.081140	-5.906259	 11.590570	-3.440201	 6.169516	 16.975790	-0.704167	 2.790434	 36.192520	-7.779912	 2.198564	 16.468090	 2.814373
